<svg xmlns="http://www.w3.org/2000/svg" width="1325" height="502" viewBox="0 0 1325 502">
  <g id="Mural" transform="translate(-726 -30)">
    <g id="Mountain_1" data-name="Mountain 1" transform="translate(232.071 -91.472)">
      <path id="Polygon_2" data-name="Polygon 2" d="M202,0,404,502H0Z" transform="translate(1414.929 121.472)" fill="#66514f"/>
      <path id="Path_1" data-name="Path 1" d="M1504.719,529l61.653-131.738L1530.357,529" transform="translate(-15.426 91.472)" fill="#fff"/>
    </g>
    <g id="Mountain_1-2" data-name="Mountain 1" transform="translate(-293 2)">
      <path id="Polygon_2-2" data-name="Polygon 2" d="M237.5,0,475,391H0Z" transform="translate(1415 138)" fill="#66514f"/>
      <path id="Path_1-2" data-name="Path 1" d="M1504.719,529l61.653-131.738L1530.357,529" fill="#fff"/>
    </g>
    <g id="Mountain_1-3" data-name="Mountain 1" transform="translate(-534.929 113.222)">
      <path id="Polygon_2-3" data-name="Polygon 2" d="M154,0,308,300H0Z" transform="translate(1414.929 117.778)" fill="#66514f"/>
      <path id="Path_1-3" data-name="Path 1" d="M1504.719,529l61.653-131.738L1530.357,529" transform="translate(-36.38 -111.222)" fill="#fff"/>
    </g>
    <g id="Mountain_1-4" data-name="Mountain 1" transform="translate(-341 86)">
      <path id="Polygon_2-4" data-name="Polygon 2" d="M189.5,0,379,327H0Z" transform="translate(1415 118)" fill="#653c3c"/>
      <path id="Path_1-4" data-name="Path 1" d="M1504.719,529l61.653-131.738L1530.357,529" transform="translate(-20.946 -84)" fill="#fff"/>
    </g>
    <g id="Tree_Mountain" data-name="Tree/Mountain" transform="translate(68.736 156.52)">
      <path id="Polygon_1" data-name="Polygon 1" d="M107.5,0,215,218H0Z" transform="translate(657.264 148.48)" fill="#9ab087"/>
      <rect id="Rectangle_2" data-name="Rectangle 2" width="72" height="8" transform="translate(729.264 366.48)" fill="#775656"/>
    </g>
    <g id="Tree_1" data-name="Tree 1" transform="translate(97.504 153.922)">
      <path id="Polygon_1-2" data-name="Polygon 1" d="M51.5,0,103,136H0Z" transform="translate(726.496 204.078)" fill="#a9b298"/>
      <rect id="Rectangle_2-2" data-name="Rectangle 2" width="27" height="37" transform="translate(764.496 340.078)" fill="#653c3c"/>
    </g>
    <g id="Tree_1-2" data-name="Tree 1" transform="translate(0 51.535)">
      <path id="Polygon_1-3" data-name="Polygon 1" d="M65,0l65,202H0Z" transform="translate(726 204.465)" fill="#8eb37b"/>
      <rect id="Rectangle_2-3" data-name="Rectangle 2" width="33" height="73" transform="translate(776 406.465)" fill="#653c3c"/>
    </g>
    <g id="Mountain_1-5" data-name="Mountain 1" transform="translate(-39.929 39.719)">
      <path id="Polygon_2-5" data-name="Polygon 2" d="M202,0,404,371H0Z" transform="translate(1414.929 118.281)" fill="#66514f"/>
      <path id="Path_1-5" data-name="Path 1" d="M1504.719,529l61.653-131.738L1530.357,529" transform="translate(-15.426 -39.719)" fill="#fff"/>
    </g>
    <g id="Tree_2" data-name="Tree 2" transform="translate(268 -42.764)">
      <path id="Polygon_1-4" data-name="Polygon 1" d="M107,0,214,324H0Z" transform="translate(699 191.764)" fill="#a9b298"/>
      <rect id="Rectangle_2-4" data-name="Rectangle 2" width="62" height="58" transform="translate(775 515.764)" fill="#775656"/>
    </g>
    <g id="Tree_2-2" data-name="Tree 2" transform="translate(171 39)">
      <path id="Polygon_1-5" data-name="Polygon 1" d="M90.5,0,181,253H0Z" transform="translate(699 192)" fill="#8eb37b"/>
      <rect id="Rectangle_2-5" data-name="Rectangle 2" width="62" height="47" transform="translate(759 445)" fill="#653c3c"/>
    </g>
    <g id="Tree_Mountain-2" data-name="Tree/Mountain" transform="translate(607 -2)">
      <path id="Polygon_1-6" data-name="Polygon 1" d="M166.5,0,333,380H0Z" transform="translate(657 148)" fill="#a9b298"/>
      <rect id="Rectangle_2-6" data-name="Rectangle 2" width="112" height="5" transform="translate(768 528)" fill="#775656"/>
    </g>
    <g id="Tree_3" data-name="Tree 3" transform="translate(387)">
      <path id="Polygon_1-7" data-name="Polygon 1" d="M149.5,0,299,339H0Z" transform="translate(674 151)" fill="#8eb37b"/>
      <rect id="Rectangle_2-7" data-name="Rectangle 2" width="112" height="41" transform="translate(768 490)" fill="#653c3c"/>
    </g>
    <g id="Mountain_1-6" data-name="Mountain 1" transform="translate(0 -34.948)">
      <path id="Polygon_2-6" data-name="Polygon 2" d="M264,0,528,448H0Z" transform="translate(1415 117.948)" fill="#653c3c"/>
      <path id="Path_1-6" data-name="Path 1" d="M1504.719,529l61.653-131.738L1530.357,529" transform="translate(11.475 36.948)" fill="#fff"/>
    </g>
    <g id="Tree_1-3" data-name="Tree 1" transform="translate(661.504 153.922)">
      <path id="Path_2" data-name="Path 2" d="M51.5,0,103,127H0Z" transform="translate(726.496 204.078)" fill="#8eb37b"/>
      <rect id="Rectangle_2-8" data-name="Rectangle 2" width="27" height="46" transform="translate(764.496 331.078)" fill="#66514f" opacity="0.996"/>
    </g>
  </g>
</svg>
